<?xml version="1.0" encoding="UTF-8"?>
<svg id="Livello_1" data-name="Livello 1" xmlns="http://www.w3.org/2000/svg" viewBox="0 0 825.78 273.88">
  <defs>
    <style>
      .cls-1 {
        fill: #fff;
      }

      .cls-2 {
        fill: #41923a;
      }

      .cls-3 {
        fill: #1d4620;
      }
    </style>
  </defs>
  <g>
    <path class="cls-2" d="M276.31,186.66l.03.03h89.81v-48.85h-11.02c1.32-2.45,2.56-4.98,3.69-7.58,4.88-11.19,7.32-23.22,7.32-36.07,0-12.86-2.44-24.88-7.32-36.07-4.88-11.2-11.49-20.96-19.82-29.29-8.33-8.34-18.09-14.95-29.29-19.82-11.19-4.88-23.09-7.32-35.72-7.32-12.62,0-24.52,2.44-35.72,7.32-11.19,4.88-20.95,11.49-29.29,19.82-8.33,8.33-14.94,18.09-19.82,29.29-4.88,11.19-7.32,23.22-7.32,36.07,0,12.86,2.44,24.88,7.32,36.07,4.88,11.19,11.49,20.95,19.82,29.29,8.34,8.33,18.1,14.94,29.29,19.82,11.19,4.88,23.1,7.32,35.72,7.32.77,0,1.54,0,2.31-.03ZM274.01,144.19c-24.09,0-44.19-17.03-48.94-39.71-.95-3.28-1.44-6.72-1.44-10.3,0-3.73.52-7.33,1.55-10.78,4.93-22.43,24.91-39.23,48.83-39.23,27.62,0,50,22.39,50,50,0,27.62-22.39,50-50,50Z"/>
    <path class="cls-2" d="M93.21,1.68c12.67,0,24.61,2.45,35.85,7.35,11.23,4.9,21.03,11.53,29.4,19.9,8.36,8.37,15,18.17,19.9,29.4,4.9,11.24,7.35,23.3,7.35,36.21,0,6.93-.72,13.62-2.15,20.08l-.36.72h-91.06l-22.94-36.57h68.12c-3.35-10.04-8.91-18.28-16.67-24.74-7.77-6.45-16.91-9.68-27.43-9.68-6.45,0-12.55,1.31-18.28,3.93-5.74,2.62-10.7,6.13-14.88,10.54-4.18,4.4-7.47,9.65-9.86,15.72-2.39,6.07-3.59,12.68-3.59,19.82,0,5.48,1.08,11.14,3.23,16.97,2.15,5.84,5.25,11.14,9.32,15.9,4.06,4.76,8.96,8.75,14.7,11.97,5.74,3.22,12.19,4.82,19.36,4.82,6.45,0,12.37-.9,17.75-2.69,5.38-1.79,10.45-5.79,15.24-12.01l.36-.36.72.36,41.59,18.31-.72.73c-8.6,12.05-19.54,21.45-32.8,28.2-13.26,6.75-27.31,10.12-42.12,10.12-12.91,0-25.04-2.39-36.39-7.17-11.35-4.78-21.21-11.35-29.58-19.72-8.37-8.36-15-18.16-19.9-29.4C2.45,119.15,0,107.2,0,94.53s2.45-24.97,7.35-36.21c4.9-11.23,11.53-21.03,19.9-29.4,8.36-8.36,18.22-15,29.58-19.9,11.35-4.9,23.48-7.35,36.39-7.35Z"/>
    <path class="cls-2" d="M501.01,13.73v83.92c-.38,5.44-1.46,10.56-3.24,15.34-2.27,6.09-5.38,11.47-9.32,16.13-3.94,4.66-8.49,8.31-13.62,10.93-5.14,2.63-10.7,3.94-16.67,3.94s-11.6-1.31-16.85-3.94c-5.26-2.63-9.86-6.27-13.8-10.93-3.94-4.66-7.05-10.04-9.32-16.13-2.27-6.09-3.41-12.73-3.41-19.9V13.73h-49.07l-.41,80.45c0,12.67,2.45,24.62,7.35,35.85,4.9,11.24,11.53,21.03,19.9,29.4,8.36,8.37,18.16,15,29.4,19.9,11.23,4.9,23.3,7.35,36.21,7.35s24.97-2.45,36.21-7.35c2.27-.99,4.49-2.06,6.64-3.19v10.56h49.03V13.73h-49.03Z"/>
    <path class="cls-2" d="M735.35,94.17c0-12.67-2.45-24.61-7.35-35.85-4.9-11.23-11.53-21.03-19.9-29.4-8.37-8.36-18.17-15-29.4-19.9-11.24-4.9-23.3-7.35-36.21-7.35s-24.98,2.45-36.21,7.35c-11.24,4.9-21.03,11.53-29.4,19.9-8.37,8.37-15,18.17-19.9,29.4-4.9,11.24-7.35,23.18-7.35,35.85s2.45,24.62,7.35,35.85c4.9,11.24,11.53,21.03,19.9,29.4,8.36,8.37,18.16,15,29.4,19.9,11.23,4.9,23.3,7.35,36.21,7.35s24.97-2.45,36.21-7.35c2.62-1.14,5.15-2.38,7.61-3.71v11.06h49.03v-90.15l-.03-.03c.02-.77.03-1.54.03-2.31ZM642.49,144.38c-27.72,0-50.19-22.47-50.19-50.19,0-24,16.86-44.06,39.37-49.01,3.46-1.03,7.07-1.55,10.82-1.55s7.04.49,10.34,1.44c22.76,4.77,39.85,24.94,39.85,49.12,0,27.72-22.47,50.19-50.19,50.19Z"/>
  </g>
  <g>
    <path class="cls-3" d="M445.45,222.2c3.56,0,6.92.69,10.08,2.07,3.16,1.38,5.91,3.24,8.26,5.59,2.35,2.35,4.21,5.11,5.59,8.26,1.38,3.16,2.07,6.55,2.07,10.18,0,1.95-.2,3.83-.6,5.64l-.1.2h-41.05v-10.28h28.16c-.94-2.82-2.5-5.14-4.69-6.95-2.18-1.81-4.75-2.72-7.71-2.72-1.81,0-3.53.37-5.14,1.11-1.61.74-3.01,1.72-4.18,2.96-1.18,1.24-2.1,2.71-2.77,4.42-.67,1.71-1.01,3.56-1.01,5.57,0,1.54.3,3.13.91,4.77.6,1.64,1.48,3.13,2.62,4.47,1.14,1.34,2.52,2.46,4.13,3.36,1.61.9,3.43,1.36,5.44,1.36,1.81,0,3.48-.25,4.99-.76,1.51-.5,2.94-1.63,4.28-3.38l.1-.1.2.1,11.69,5.15-.2.2c-2.42,3.39-5.49,6.03-9.22,7.93-3.73,1.9-7.68,2.85-11.84,2.85-3.63,0-7.04-.67-10.23-2.02-3.19-1.34-5.96-3.19-8.31-5.54-2.35-2.35-4.22-5.1-5.59-8.26-1.38-3.16-2.07-6.52-2.07-10.08s.69-7.02,2.07-10.18c1.38-3.16,3.24-5.91,5.59-8.26,2.35-2.35,5.12-4.21,8.31-5.59,3.19-1.38,6.6-2.07,10.23-2.07Z"/>
    <path class="cls-3" d="M347.88,225.63c-3.29-1.44-6.83-2.16-10.62-2.16s-7.32.72-10.62,2.16c-.67.29-1.32.6-1.95.94v-3.1h-14.38v50.72h14.38v-24.61c.11-1.6.43-3.1.95-4.5.67-1.79,1.58-3.36,2.73-4.73,1.16-1.37,2.49-2.44,4-3.21,1.51-.77,3.14-1.16,4.89-1.16s3.4.38,4.94,1.16"/>
    <path class="cls-3" d="M398.76,243.46c2.22.74,4.25,1.5,6.1,2.27,1.85.77,3.46,1.7,4.84,2.77,1.38,1.08,2.45,2.37,3.22,3.88.77,1.51,1.16,3.31,1.16,5.39v.1c0,5.11-1.7,9.1-5.09,11.99-3.39,2.89-8.15,4.33-14.26,4.33-3.83,0-7.59-.66-11.29-1.98-3.7-1.32-7.15-3.2-10.38-5.64l-.1-.1.1-.1,6.85-10.82.1.1c2.01,2.15,4.3,3.78,6.85,4.89,2.55,1.11,5.27,1.66,8.16,1.66,3.96,0,5.95-1.27,5.95-3.82,0-1.21-.64-2.11-1.91-2.71-1.28-.6-2.79-1.17-4.53-1.71-.34-.13-.66-.22-.96-.25-.3-.03-.62-.12-.96-.25-2.01-.54-4.03-1.12-6.05-1.76-2.02-.64-3.83-1.51-5.44-2.61-1.61-1.11-2.94-2.51-3.98-4.22-1.04-1.71-1.56-3.9-1.56-6.58v-.2c0-2.35.44-4.49,1.31-6.43.87-1.94,2.12-3.62,3.73-5.03,1.61-1.41,3.56-2.49,5.84-3.27,2.28-.77,4.8-1.16,7.56-1.16,3.22,0,6.48.49,9.77,1.46,3.29.97,6.35,2.4,9.17,4.28v.2l-6.15,11.19-.1-.1c-1.55-1.54-3.46-2.77-5.74-3.68-2.28-.91-4.7-1.36-7.26-1.36-.47,0-1.01.03-1.61.1-.6.07-1.16.24-1.66.5-.5.27-.92.62-1.26,1.06-.34.44-.5,1.06-.5,1.86,0,.6.27,1.16.81,1.66.54.5,1.23.97,2.07,1.41.84.44,1.78.86,2.82,1.26,1.04.4,2.07.77,3.07,1.11.2,0,.42.03.66.1.23.07.45.14.66.2Z"/>
    <path class="cls-3" d="M360.43,240.8c-3,0-5.67-1.42-7.37-3.63v37.02h14.74v-37.02c-1.7,2.21-4.37,3.63-7.37,3.63Z"/>
    <circle class="cls-3" cx="360.43" cy="229.57" r="7.37"/>
  </g>
  <circle class="cls-3" cx="760.37" cy="100.21" r="65.42"/>
  <path class="cls-1" d="M760.14,95.64c.05.76.08,1.53.08,2.29,0,3.77-.68,7.31-2.02,10.65-1.35,3.33-3.21,6.23-5.57,8.7-2.36,2.46-5.18,4.41-8.43,5.83-3.25,1.43-6.77,2.14-10.53,2.14s-7.31-.71-10.65-2.14c-3.33-1.43-6.23-3.37-8.7-5.83-2.47-2.47-4.41-5.37-5.84-8.7-1.43-3.33-2.14-6.88-2.14-10.65s.71-7.31,2.14-10.65c1.43-3.33,3.37-6.23,5.84-8.7,2.46-2.46,5.36-4.41,8.7-5.83,3.33-1.43,6.88-2.14,10.65-2.14,4.93,0,9.43,1.18,13.47,3.55,4.05,2.36,7.29,5.48,9.73,9.35l-8.93,5.72c-1.37-2.75-3.32-4.95-5.84-6.6-2.52-1.65-5.33-2.48-8.43-2.48-2.29,0-4.43.47-6.41,1.41-1.99.94-3.72,2.22-5.19,3.82-1.47,1.61-2.65,3.48-3.51,5.65-.86,2.17-1.3,4.47-1.3,6.91s.43,4.75,1.3,6.91c.86,2.16,2.04,4.04,3.51,5.65,1.47,1.6,3.21,2.87,5.19,3.82,1.98.94,4.12,1.41,6.41,1.41,1.83,0,3.56-.3,5.19-.91,1.63-.61,3.08-1.47,4.35-2.6,1.27-1.12,2.37-2.43,3.32-3.93.94-1.5,1.64-3.16,2.1-4.99h-14.5l-4.89-9.92h30.68c.1.76.18,1.53.23,2.29Z"/>
  <path class="cls-1" d="M812.3,87.55c-1.4-3.25-3.31-6.09-5.72-8.51-2.42-2.42-5.25-4.32-8.51-5.72-3.25-1.4-6.72-2.1-10.38-2.1h-22.89v53.06l10.69-11.34v-32.41h12.2c2.19,0,4.26.45,6.22,1.33,1.96.89,3.67,2.11,5.11,3.66,1.45,1.56,2.6,3.4,3.44,5.54.84,2.13,1.26,4.43,1.26,6.87s-.42,4.81-1.26,6.94c-.84,2.14-1.99,3.98-3.44,5.53s-3.15,2.76-5.11,3.62c-1.96.87-4.03,1.3-6.22,1.3h-1.95s-8.78,9.31-8.78,9.31h10.73c3.67,0,7.13-.7,10.38-2.1,3.25-1.39,6.09-3.3,8.51-5.72s4.32-5.25,5.72-8.51c1.4-3.25,2.1-6.72,2.1-10.38s-.69-7.12-2.1-10.38Z"/>
</svg>