<?xml version="1.0" encoding="UTF-8"?>
<svg id="Livello_1" data-name="Livello 1" xmlns="http://www.w3.org/2000/svg" viewBox="0 0 460 460">
  <defs>
    <style>
      .cls-1 {
        fill: #0c4706;
      }

      .cls-2 {
        fill: #42933a;
      }
    </style>
  </defs>
  <path class="cls-2" d="M408.74,275.8c0-12.07-2.34-23.46-7.01-34.17-4.67-10.71-10.99-20.04-18.97-28.02-7.98-7.97-17.32-14.29-28.02-18.97-6.99-3.05-14.33-5.1-22-6.15-1.29-.2-2.59-.36-3.9-.5h69.5v-46.74h-10.54c1.27-2.35,2.45-4.76,3.53-7.26,4.67-10.71,7.01-22.21,7.01-34.52s-2.34-23.81-7.01-34.52c-4.67-10.71-10.99-20.05-18.97-28.02-7.97-7.98-17.31-14.3-28.02-18.97-10.71-4.67-22.1-7.01-34.17-7.01s-23.46,2.33-34.17,7.01c-10.71,4.67-20.04,10.99-28.02,18.97-7.97,7.97-14.29,17.31-18.97,28.02-1.3,2.98-2.41,6.02-3.35,9.12-.92-2.98-1.99-5.91-3.25-8.79-4.67-10.71-10.99-20.04-18.97-28.02-7.98-7.97-17.32-14.29-28.02-18.97-7.02-3.06-14.34-5.11-21.94-6.17-4.36-.67-8.82-1-13.38-1-12.3,0-23.87,2.34-34.69,7.01-10.82,4.67-20.22,10.99-28.19,18.97-7.98,7.98-14.3,17.32-18.97,28.02-4.67,10.71-7.01,22.21-7.01,34.52s2.33,23.47,7.01,34.17c4.67,10.71,10.99,20.05,18.97,28.02,7.97,7.98,17.37,14.24,28.19,18.8,7.01,2.95,14.33,4.94,21.97,5.98,4.51.67,9.14,1.02,13.87,1.02,14.12,0,27.51-3.21,40.15-9.65,12.64-6.43,23.07-15.39,31.27-26.88l.68-.69-39.64-17.46-.68-.34-.27.27-.2-.09-.68-.34-.34.34c-4.56,5.93-9.4,9.74-14.52,11.45-5.13,1.71-10.76,2.56-16.92,2.56-1.65,0-3.26-.09-4.83-.27-4.49-.65-8.65-2.02-12.47-4.16-5.47-3.06-10.14-6.87-14.01-11.41-3.88-4.54-6.83-9.59-8.88-15.15-2.05-5.56-3.08-10.95-3.08-16.17,0-6.81,1.14-13.11,3.42-18.9,2.28-5.79,5.41-10.79,9.4-14.98,3.98-4.2,8.71-7.55,14.18-10.04,5.47-2.5,11.28-3.75,17.43-3.75,1.86,0,3.68.11,5.45.32,7.3,1.08,13.82,3.99,19.55,8.75,7.4,6.15,12.7,14.01,15.89,23.58h-64.93l21.87,34.86h1.05l.1.16h84.03c1.15,4.94,2.73,9.72,4.75,14.36,4.67,10.71,10.99,20.05,18.97,28.02,7.98,7.97,17.32,14.3,28.02,18.97,10.48,4.57,21.62,6.9,33.41,7-8.71.91-16.99,3.08-24.84,6.5-10.71,4.67-20.05,10.99-28.02,18.97-7.98,7.98-14.3,17.32-18.97,28.02-2.49,5.7-4.3,11.6-5.47,17.69v-56.07h-1.15v-.16h-45.61v78.07c-.36,5.06-1.36,9.82-3.01,14.27-2.12,5.67-5,10.67-8.67,15.01-3.67,4.34-7.89,7.73-12.67,10.17-4.78,2.45-9.95,3.67-15.51,3.67-1.38,0-2.73-.08-4.06-.23-3.64-.53-7.13-1.61-10.46-3.28-4.89-2.44-9.17-5.84-12.84-10.17-3.67-4.34-6.56-9.34-8.67-15.01-2.12-5.67-3.17-11.84-3.17-18.51v-73.83h-1.15v-.16h-45.64l-.38,74.83c0,11.79,2.28,22.9,6.84,33.35,4.55,10.45,10.72,19.57,18.51,27.35,7.78,7.79,16.89,13.95,27.35,18.51,6.83,2.98,13.99,4.98,21.49,6.01,4.34.66,8.78.99,13.34.99,12.01,0,23.23-2.28,33.68-6.84,1.72-.75,3.39-1.55,5.03-2.39v9.09h1.15v.16h45.61v-71.84c1.16,6.09,2.98,11.98,5.47,17.68,4.67,10.71,10.99,20.05,18.97,28.02,7.97,7.98,17.31,14.3,28.02,18.97,6.99,3.05,14.33,5.09,22,6.15,4.44.67,9,1.01,13.67,1.01,12.3,0,23.8-2.34,34.52-7.01,2.09-.91,4.12-1.9,6.11-2.94v9.79h1.15v.16h46.74v-85.93l-.03-.03c.02-.73.03-1.47.03-2.21ZM272.39,275.81c0-22.88,16.07-42,37.53-46.72,3.3-.99,6.74-1.48,10.31-1.48,1.52,0,3,.11,4.46.29,1.44.23,2.86.53,4.24.93,21.7,4.54,37.99,23.78,37.99,46.82,0,26.42-21.42,47.84-47.84,47.84-2.18,0-4.33-.16-6.43-.44-22.82-3.64-40.26-23.4-40.26-47.24ZM263.36,109.33c-.91-3.14-1.37-6.43-1.37-9.85s.49-7.01,1.48-10.31c4.72-21.46,23.84-37.53,46.72-37.53,26.42,0,47.84,21.42,47.84,47.84s-21.42,47.84-47.84,47.84c-23.05,0-42.28-16.29-46.82-37.99Z"/>
  <g>
    <path class="cls-1" d="M298.92,386.36c4.46,0,8.66.86,12.62,2.59,3.95,1.73,7.4,4.06,10.35,7,2.94,2.95,5.28,6.39,7,10.35,1.72,3.96,2.59,8.2,2.59,12.75,0,2.44-.25,4.8-.76,7.07l-.13.25h-51.42v-12.87h35.26c-1.18-3.53-3.14-6.44-5.87-8.71-2.74-2.27-5.95-3.41-9.65-3.41-2.27,0-4.42.46-6.44,1.38-2.02.92-3.77,2.16-5.24,3.71-1.47,1.55-2.63,3.4-3.47,5.53-.84,2.14-1.26,4.46-1.26,6.98,0,1.93.38,3.92,1.14,5.97.76,2.05,1.85,3.92,3.28,5.6,1.43,1.68,3.16,3.08,5.17,4.21,2.02,1.13,4.29,1.7,6.81,1.7,2.27,0,4.35-.32,6.25-.95,1.89-.63,3.68-2.04,5.36-4.23l.13-.13.25.13,14.64,6.45-.25.26c-3.03,4.24-6.88,7.55-11.55,9.93-4.67,2.38-9.61,3.56-14.83,3.56-4.54,0-8.81-.84-12.81-2.52-4-1.68-7.47-4-10.41-6.94-2.95-2.94-5.28-6.39-7-10.35-1.73-3.95-2.59-8.16-2.59-12.62s.86-8.79,2.59-12.75c1.72-3.95,4.06-7.4,7-10.35,2.94-2.94,6.41-5.28,10.41-7,4-1.72,8.27-2.59,12.81-2.59Z"/>
    <path class="cls-1" d="M176.72,390.66c-4.13-1.8-8.56-2.7-13.3-2.7s-9.17.9-13.3,2.7c-.84.36-1.65.76-2.44,1.17v-3.88h-18.01v63.53h18.01v-30.82c.14-2,.54-3.88,1.19-5.64.84-2.24,1.98-4.21,3.42-5.93,1.45-1.71,3.12-3.05,5-4.02,1.89-.97,3.93-1.45,6.12-1.45s4.26.48,6.19,1.45"/>
    <path class="cls-1" d="M240.44,412.99c2.78.93,5.32,1.87,7.64,2.84,2.31.97,4.33,2.13,6.06,3.47,1.72,1.35,3.07,2.97,4.04,4.86.97,1.89,1.45,4.15,1.45,6.75v.13c0,6.39-2.13,11.4-6.37,15.02-4.25,3.62-10.2,5.43-17.86,5.43-4.8,0-9.51-.83-14.14-2.48-4.63-1.65-8.96-4.01-13-7.07l-.13-.13.13-.13,8.58-13.55.13.13c2.52,2.69,5.38,4.73,8.58,6.12,3.2,1.39,6.6,2.08,10.22,2.08,4.96,0,7.45-1.59,7.45-4.78,0-1.51-.8-2.64-2.4-3.4-1.6-.76-3.49-1.47-5.68-2.14-.42-.17-.82-.27-1.2-.31-.38-.04-.78-.15-1.2-.32-2.52-.67-5.05-1.41-7.57-2.2-2.52-.8-4.8-1.89-6.82-3.27-2.02-1.38-3.68-3.15-4.99-5.29-1.31-2.14-1.96-4.89-1.96-8.25v-.25c0-2.94.55-5.62,1.64-8.06,1.09-2.43,2.65-4.53,4.67-6.29,2.02-1.76,4.46-3.12,7.32-4.09,2.86-.96,6.01-1.45,9.47-1.45,4.04,0,8.12.61,12.24,1.83,4.12,1.22,7.95,3.01,11.48,5.36v.25l-7.7,14.01-.13-.13c-1.94-1.93-4.33-3.47-7.19-4.61-2.86-1.14-5.89-1.7-9.09-1.7-.59,0-1.26.04-2.02.13-.76.09-1.45.3-2.08.63-.63.34-1.16.78-1.58,1.33-.42.55-.63,1.32-.63,2.33,0,.76.33,1.45,1.01,2.08.67.63,1.53,1.22,2.59,1.77,1.05.55,2.23,1.07,3.53,1.58,1.3.51,2.59.97,3.85,1.39.25,0,.52.04.82.13.29.09.57.17.82.25Z"/>
    <path class="cls-1" d="M192.43,409.66c-3.76,0-7.1-1.78-9.23-4.55v46.37h18.46v-46.37c-2.13,2.76-5.47,4.55-9.23,4.55Z"/>
    <circle class="cls-1" cx="192.43" cy="395.59" r="9.23"/>
  </g>
</svg>