<?xml version="1.0" encoding="UTF-8"?>
<svg id="Livello_1" data-name="Livello 1" xmlns="http://www.w3.org/2000/svg" viewBox="0 0 825.78 273.88">
  <defs>
    <style>
      .cls-1 {
        fill: #fff;
      }

      .cls-2 {
        fill: #e1a51b;
      }

      .cls-3 {
        fill: #9b5516;
      }
    </style>
  </defs>
  <g>
    <g>
      <path class="cls-2" d="M276.31,187.68l.03.03h89.81v-48.85h-11.02c1.32-2.45,2.56-4.98,3.69-7.58,4.88-11.19,7.32-23.22,7.32-36.07,0-12.86-2.44-24.88-7.32-36.07-4.88-11.2-11.49-20.96-19.82-29.29-8.33-8.34-18.09-14.95-29.29-19.82-11.19-4.88-23.09-7.32-35.72-7.32-12.62,0-24.52,2.44-35.72,7.32-11.19,4.88-20.95,11.49-29.29,19.82-8.33,8.33-14.94,18.09-19.82,29.29-4.88,11.19-7.32,23.22-7.32,36.07,0,12.86,2.44,24.88,7.32,36.07,4.88,11.19,11.49,20.95,19.82,29.29,8.34,8.33,18.1,14.94,29.29,19.82,11.19,4.88,23.1,7.32,35.72,7.32.77,0,1.54,0,2.31-.03ZM274.01,145.2c-24.09,0-44.19-17.03-48.94-39.71-.95-3.28-1.44-6.72-1.44-10.3,0-3.73.52-7.33,1.55-10.78,4.93-22.43,24.91-39.23,48.83-39.23,27.62,0,50,22.39,50,50,0,27.62-22.39,50-50,50Z"/>
      <path class="cls-2" d="M93.21,2.69c12.67,0,24.61,2.45,35.85,7.35,11.23,4.9,21.03,11.53,29.4,19.9,8.36,8.37,15,18.17,19.9,29.4,4.9,11.24,7.35,23.3,7.35,36.21,0,6.93-.72,13.62-2.15,20.08l-.36.72h-91.06l-22.94-36.57h68.12c-3.35-10.04-8.91-18.28-16.67-24.74-7.77-6.45-16.91-9.68-27.43-9.68-6.45,0-12.55,1.31-18.28,3.93-5.74,2.62-10.7,6.13-14.88,10.54-4.18,4.4-7.47,9.65-9.86,15.72-2.39,6.07-3.59,12.68-3.59,19.82,0,5.48,1.08,11.14,3.23,16.97,2.15,5.84,5.25,11.14,9.32,15.9,4.06,4.76,8.96,8.75,14.7,11.97,5.74,3.22,12.19,4.82,19.36,4.82,6.45,0,12.37-.9,17.75-2.69,5.38-1.79,10.45-5.79,15.24-12.01l.36-.36.72.36,41.59,18.31-.72.73c-8.6,12.05-19.54,21.45-32.8,28.2-13.26,6.75-27.31,10.12-42.12,10.12-12.91,0-25.04-2.39-36.39-7.17-11.35-4.78-21.21-11.35-29.58-19.72-8.37-8.36-15-18.16-19.9-29.4C2.45,120.16,0,108.22,0,95.54s2.45-24.97,7.35-36.21c4.9-11.23,11.53-21.03,19.9-29.4,8.36-8.36,18.22-15,29.58-19.9,11.35-4.9,23.48-7.35,36.39-7.35Z"/>
      <path class="cls-2" d="M501.01,14.74v83.92c-.38,5.44-1.46,10.56-3.24,15.34-2.27,6.09-5.38,11.47-9.32,16.13-3.94,4.66-8.49,8.31-13.62,10.93-5.14,2.63-10.7,3.94-16.67,3.94s-11.6-1.31-16.85-3.94c-5.26-2.63-9.86-6.27-13.8-10.93-3.94-4.66-7.05-10.04-9.32-16.13-2.27-6.09-3.41-12.73-3.41-19.9V14.74h-49.07l-.41,80.45c0,12.67,2.45,24.62,7.35,35.85,4.9,11.24,11.53,21.03,19.9,29.4,8.36,8.37,18.16,15,29.4,19.9,11.23,4.9,23.3,7.35,36.21,7.35s24.97-2.45,36.21-7.35c2.27-.99,4.49-2.06,6.64-3.19v10.56h49.03V14.74h-49.03Z"/>
      <path class="cls-2" d="M735.35,95.19c0-12.67-2.45-24.61-7.35-35.85-4.9-11.23-11.53-21.03-19.9-29.4-8.37-8.36-18.17-15-29.4-19.9-11.24-4.9-23.3-7.35-36.21-7.35s-24.98,2.45-36.21,7.35c-11.24,4.9-21.03,11.53-29.4,19.9-8.37,8.37-15,18.17-19.9,29.4-4.9,11.24-7.35,23.18-7.35,35.85s2.45,24.62,7.35,35.85c4.9,11.24,11.53,21.03,19.9,29.4,8.36,8.37,18.16,15,29.4,19.9,11.23,4.9,23.3,7.35,36.21,7.35s24.97-2.45,36.21-7.35c2.62-1.14,5.15-2.38,7.61-3.71v11.06h49.03v-90.15l-.03-.03c.02-.77.03-1.54.03-2.31ZM642.49,145.39c-27.72,0-50.19-22.47-50.19-50.19,0-24,16.86-44.06,39.37-49.01,3.46-1.03,7.07-1.55,10.82-1.55s7.04.49,10.34,1.44c22.76,4.77,39.85,24.94,39.85,49.12,0,27.72-22.47,50.19-50.19,50.19Z"/>
    </g>
    <g>
      <path class="cls-3" d="M486.97,230.06c3.1,0,6.03.6,8.79,1.8,2.75,1.2,5.15,2.83,7.2,4.88,2.05,2.05,3.68,4.45,4.88,7.2,1.2,2.75,1.8,5.71,1.8,8.87,0,1.7-.18,3.34-.53,4.92l-.09.18h-35l.32-8.96h23.43c-.82-2.46-2.18-4.48-4.09-6.06-1.9-1.58-4.14-2.37-6.72-2.37-1.58,0-3.08.32-4.48.96-1.41.64-2.62,1.5-3.65,2.58-1.03,1.08-1.83,2.36-2.42,3.85-.59,1.49-.88,3.11-.88,4.86,0,1.34.26,2.73.79,4.16.53,1.43,1.29,2.73,2.28,3.9,1,1.17,2.2,2.14,3.6,2.93,1.41.79,2.99,1.18,4.74,1.18,1.58,0,3.03-.22,4.35-.66s2.56-1.42,3.73-2.94l.09-.09.18.09,10.19,4.49-.18.18c-2.11,2.95-4.79,5.26-8.04,6.91-3.25,1.65-6.69,2.48-10.32,2.48-3.16,0-6.14-.59-8.92-1.76-2.78-1.17-5.2-2.78-7.25-4.83-2.05-2.05-3.68-4.45-4.88-7.2-1.2-2.75-1.8-5.68-1.8-8.79s.6-6.12,1.8-8.87c1.2-2.75,2.83-5.15,4.88-7.2,2.05-2.05,4.47-3.68,7.25-4.88,2.78-1.2,5.76-1.8,8.92-1.8Z"/>
      <path class="cls-3" d="M458.93,244.91c-1.28-2.95-3.02-5.51-5.22-7.71-2.19-2.19-4.76-3.93-7.71-5.22-2.94-1.28-6.11-1.93-9.49-1.93s-6.55.64-9.49,1.93c-.04.02-.09.04-.13.06h0c-3.14,1.34-5.92,3.35-8.21,5.83-.21-.22-.4-.46-.62-.68-2.19-2.19-4.76-3.93-7.71-5.22-2.94-1.28-6.11-1.93-9.49-1.93s-6.55.64-9.49,1.93c-.6.26-1.18.54-1.74.84v-2.77h-12.85v45.34h12.85v-22c.1-1.43.38-2.77.85-4.02.6-1.6,1.41-3.01,2.44-4.23,1.03-1.22,2.22-2.18,3.57-2.87,1.35-.69,2.8-1.03,4.37-1.03s3.04.34,4.42,1.03c1.38.69,2.58,1.64,3.62,2.87,1.03,1.22,1.85,2.63,2.44,4.23.6,1.6.89,3.34.89,5.22v20.8h12.86s.17,0,.17,0v-22c.1-1.43.38-2.77.85-4.02.6-1.6,1.41-3.01,2.44-4.23,1.03-1.22,2.22-2.18,3.57-2.87,1.35-.69,2.8-1.03,4.37-1.03s3.04.34,4.42,1.03c1.38.69,2.58,1.64,3.62,2.87,1.03,1.22,1.85,2.63,2.44,4.23.6,1.6.89,3.34.89,5.22v20.8h12.86l.11-21.09c0-3.32-.64-6.45-1.93-9.4Z"/>
      <path class="cls-3" d="M289.71,275.34v-22c.1-1.43.38-2.77.85-4.02.6-1.6,1.41-3.01,2.44-4.23,1.03-1.22,2.22-2.18,3.57-2.87,1.35-.69,2.8-1.03,4.37-1.03s3.04.34,4.42,1.03c1.38.69,2.58,1.64,3.62,2.87,1.03,1.22,1.85,2.63,2.44,4.23.6,1.6.89,3.34.89,5.22v20.8h12.86l.11-21.09c0-3.32-.64-6.45-1.93-9.4-1.28-2.95-3.02-5.51-5.22-7.71-2.19-2.19-4.76-3.93-7.71-5.22-2.94-1.28-6.11-1.93-9.49-1.93s-6.55.64-9.49,1.93c-.6.26-1.18.54-1.74.84v-12.51h-12.85v55.08h12.85Z"/>
      <path class="cls-3" d="M372.62,243.68c-1.24-2.83-2.91-5.31-5.02-7.42-2.11-2.11-4.58-3.78-7.42-5.02-2.84-1.24-5.88-1.85-9.14-1.85s-6.3.62-9.14,1.85c-2.84,1.24-5.31,2.91-7.42,5.02-2.11,2.11-3.78,4.58-5.02,7.42-1.24,2.84-1.85,5.85-1.85,9.05s.62,6.21,1.85,9.05c1.24,2.84,2.91,5.31,5.02,7.42,2.11,2.11,4.58,3.79,7.42,5.02,2.83,1.24,5.88,1.85,9.14,1.85s6.3-.62,9.14-1.85c2.83-1.24,5.31-2.91,7.42-5.02,2.11-2.11,3.78-4.58,5.02-7.42,1.24-2.83,1.85-5.85,1.85-9.05s-.62-6.21-1.85-9.05ZM351.52,264.56c-.16,0-.32.01-.48.01,0,0-.01,0-.02,0,0,0-.02,0-.02,0-6.99,0-12.67-5.67-12.67-12.67s5.67-12.67,12.67-12.67c0,0,.02,0,.02,0,0,0,.01,0,.02,0,.16,0,.31,0,.46.01,6.76.27,12.16,5.83,12.16,12.65s-5.39,12.38-12.14,12.65Z"/>
    </g>
  </g>
  <circle class="cls-3" cx="760.37" cy="101.22" r="65.42"/>
  <g>
    <path class="cls-1" d="M785.43,97.61c.04.57.06,1.13.06,1.7,0,2.79-.5,5.42-1.5,7.89-1,2.47-2.37,4.62-4.13,6.45-1.75,1.83-3.84,3.27-6.25,4.33-2.41,1.05-5.01,1.58-7.8,1.58s-5.42-.53-7.89-1.58c-2.47-1.05-4.62-2.5-6.45-4.33-1.83-1.83-3.27-3.98-4.33-6.45-1.06-2.47-1.58-5.1-1.58-7.89s.53-5.42,1.58-7.89c1.06-2.47,2.5-4.62,4.33-6.45,1.83-1.83,3.98-3.27,6.45-4.33,2.47-1.05,5.1-1.58,7.89-1.58,3.66,0,6.98.88,9.98,2.63,3,1.75,5.4,4.06,7.21,6.93l-6.62,4.24c-1.02-2.03-2.46-3.67-4.33-4.89-1.87-1.23-3.95-1.84-6.25-1.84-1.7,0-3.28.35-4.75,1.04-1.47.7-2.75,1.64-3.85,2.83-1.09,1.19-1.96,2.58-2.6,4.19-.64,1.6-.96,3.31-.96,5.12s.32,3.52.96,5.12c.64,1.6,1.51,3,2.6,4.19,1.09,1.19,2.37,2.13,3.85,2.83,1.47.7,3.05,1.04,4.75,1.04,1.36,0,2.64-.22,3.85-.68,1.21-.45,2.28-1.09,3.22-1.92.94-.83,1.76-1.8,2.46-2.91.7-1.11,1.22-2.34,1.55-3.7h-10.74l-3.62-7.35h22.73c.08.56.13,1.13.17,1.69Z"/>
    <path class="cls-1" d="M788.43,111.19v-31.67h7.92v39.59h0c-4.37,0-7.92-3.54-7.92-7.92ZM790.18,111.19h24.77v7.92h-20.36l-4.41-7.92Z"/>
  </g>
  <path class="cls-1" d="M724.59,113.4l1.47-1c2.29-1.9,4.52-3.87,6.69-5.9,2.17-2.03,4.1-4.05,5.79-6.08,1.69-2.03,3.05-4.06,4.08-6.11,1.03-2.04,1.54-4.05,1.54-6.01,0-2.38-.46-4.6-1.39-6.65-.93-2.05-2.22-3.83-3.86-5.33-1.64-1.5-3.59-2.68-5.83-3.54-2.24-.86-4.67-1.29-7.3-1.29-2,0-3.92.32-5.76.97-1.83.65-3.51,1.54-5.04,2.69-1.53,1.14-2.86,2.49-4.01,4.04-1.14,1.55-2,3.25-2.57,5.11l9.73,2.79c.57-1.63,1.56-2.95,2.97-3.97,1.41-1.02,2.97-1.54,4.69-1.54,1.05,0,2.06.15,3.04.43.98.29,1.85.72,2.61,1.29.77.57,1.37,1.28,1.83,2.11.45.83.68,1.8.68,2.9,0,.81-.31,1.74-.93,2.79-.62,1.05-1.43,2.16-2.43,3.33-1,1.17-2.16,2.37-3.47,3.61-1.31,1.24-2.63,2.44-3.97,3.61-1.33,1.17-2.64,2.28-3.93,3.33-1.29,1.05-2.43,2-3.43,2.86l-7.3,5.58v8.72h36.33v-8.72h-20.21Z"/>
</svg>