<?xml version="1.0" encoding="UTF-8"?>
<svg id="Livello_1" data-name="Livello 1" xmlns="http://www.w3.org/2000/svg" viewBox="0 0 825.78 273.88">
  <defs>
    <style>
      .cls-1 {
        fill: #fff;
      }

      .cls-2 {
        fill: #41923a;
      }

      .cls-3 {
        fill: #1d4620;
      }
    </style>
  </defs>
  <g>
    <path class="cls-2" d="M276.31,186.31l.03.03h89.81v-48.85h-11.02c1.32-2.45,2.56-4.98,3.69-7.58,4.88-11.19,7.32-23.22,7.32-36.07s-2.44-24.88-7.32-36.07c-4.88-11.2-11.49-20.96-19.82-29.29-8.33-8.34-18.09-14.95-29.29-19.82-11.19-4.88-23.09-7.32-35.72-7.32-12.62,0-24.52,2.44-35.72,7.32-11.19,4.88-20.95,11.49-29.29,19.82-8.33,8.33-14.94,18.09-19.82,29.29-4.88,11.19-7.32,23.22-7.32,36.07,0,12.86,2.44,24.88,7.32,36.07,4.88,11.19,11.49,20.95,19.82,29.29,8.34,8.33,18.1,14.94,29.29,19.82,11.19,4.88,23.1,7.32,35.72,7.32.77,0,1.54,0,2.31-.03ZM274.01,143.84c-24.09,0-44.19-17.03-48.94-39.71-.95-3.28-1.44-6.72-1.44-10.3,0-3.73.52-7.33,1.55-10.78,4.93-22.43,24.91-39.23,48.83-39.23,27.62,0,50,22.39,50,50,0,27.62-22.39,50-50,50Z"/>
    <path class="cls-2" d="M93.21,1.33c12.67,0,24.61,2.45,35.85,7.35,11.23,4.9,21.03,11.53,29.4,19.9,8.36,8.37,15,18.17,19.9,29.4,4.9,11.24,7.35,23.3,7.35,36.21,0,6.93-.72,13.62-2.15,20.08l-.36.72h-91.06l-22.94-36.57h68.12c-3.35-10.04-8.91-18.28-16.67-24.74-7.77-6.45-16.91-9.68-27.43-9.68-6.45,0-12.55,1.31-18.28,3.93-5.74,2.62-10.7,6.13-14.88,10.54-4.18,4.4-7.47,9.65-9.86,15.72-2.39,6.07-3.59,12.68-3.59,19.82,0,5.48,1.08,11.14,3.23,16.97,2.15,5.84,5.25,11.14,9.32,15.9,4.06,4.76,8.96,8.75,14.7,11.97,5.74,3.22,12.19,4.82,19.36,4.82,6.45,0,12.37-.9,17.75-2.69,5.38-1.79,10.45-5.79,15.24-12.01l.36-.36.72.36,41.59,18.31-.72.73c-8.6,12.05-19.54,21.45-32.8,28.2-13.26,6.75-27.31,10.12-42.12,10.12-12.91,0-25.04-2.39-36.39-7.17-11.35-4.78-21.21-11.35-29.58-19.72-8.37-8.36-15-18.16-19.9-29.4C2.45,118.8,0,106.85,0,94.18s2.45-24.97,7.35-36.21c4.9-11.23,11.53-21.03,19.9-29.4,8.36-8.36,18.22-15,29.58-19.9,11.35-4.9,23.48-7.35,36.39-7.35Z"/>
    <path class="cls-2" d="M501.01,13.38v83.92c-.38,5.44-1.46,10.56-3.24,15.34-2.27,6.09-5.38,11.47-9.32,16.13-3.94,4.66-8.49,8.31-13.62,10.93-5.14,2.63-10.7,3.94-16.67,3.94s-11.6-1.31-16.85-3.94c-5.26-2.63-9.86-6.27-13.8-10.93-3.94-4.66-7.05-10.04-9.32-16.13-2.27-6.09-3.41-12.73-3.41-19.9V13.38h-49.07l-.41,80.45c0,12.67,2.45,24.62,7.35,35.85,4.9,11.24,11.53,21.03,19.9,29.4,8.36,8.37,18.16,15,29.4,19.9,11.23,4.9,23.3,7.35,36.21,7.35s24.97-2.45,36.21-7.35c2.27-.99,4.49-2.06,6.64-3.19v10.56h49.03V13.38h-49.03Z"/>
    <path class="cls-2" d="M735.35,93.82c0-12.67-2.45-24.61-7.35-35.85-4.9-11.23-11.53-21.03-19.9-29.4-8.37-8.36-18.17-15-29.4-19.9-11.24-4.9-23.3-7.35-36.21-7.35s-24.98,2.45-36.21,7.35c-11.24,4.9-21.03,11.53-29.4,19.9-8.37,8.37-15,18.17-19.9,29.4-4.9,11.24-7.35,23.18-7.35,35.85s2.45,24.62,7.35,35.85c4.9,11.24,11.53,21.03,19.9,29.4,8.36,8.37,18.16,15,29.4,19.9,11.23,4.9,23.3,7.35,36.21,7.35s24.97-2.45,36.21-7.35c2.62-1.14,5.15-2.38,7.61-3.71v11.06h49.03v-90.15l-.03-.03c.02-.77.03-1.54.03-2.31ZM642.49,144.02c-27.72,0-50.19-22.47-50.19-50.19,0-24,16.86-44.06,39.37-49.01,3.46-1.03,7.07-1.55,10.82-1.55s7.04.49,10.34,1.44c22.76,4.77,39.85,24.94,39.85,49.12,0,27.72-22.47,50.19-50.19,50.19Z"/>
  </g>
  <g>
    <path class="cls-3" d="M445.45,221.85c3.56,0,6.92.69,10.08,2.07,3.16,1.38,5.91,3.24,8.26,5.59,2.35,2.35,4.21,5.11,5.59,8.26,1.38,3.16,2.07,6.55,2.07,10.18,0,1.95-.2,3.83-.6,5.64l-.1.2h-41.05v-10.28h28.16c-.94-2.82-2.5-5.14-4.69-6.95-2.18-1.81-4.75-2.72-7.71-2.72-1.81,0-3.53.37-5.14,1.11-1.61.74-3.01,1.72-4.18,2.96-1.18,1.24-2.1,2.71-2.77,4.42-.67,1.71-1.01,3.56-1.01,5.57,0,1.54.3,3.13.91,4.77.6,1.64,1.48,3.13,2.62,4.47,1.14,1.34,2.52,2.46,4.13,3.36,1.61.9,3.43,1.36,5.44,1.36,1.81,0,3.48-.25,4.99-.76s2.94-1.63,4.28-3.38l.1-.1.2.1,11.69,5.15-.2.2c-2.42,3.39-5.49,6.03-9.22,7.93-3.73,1.9-7.68,2.85-11.84,2.85-3.63,0-7.04-.67-10.23-2.02-3.19-1.34-5.96-3.19-8.31-5.54-2.35-2.35-4.22-5.1-5.59-8.26-1.38-3.16-2.07-6.52-2.07-10.08s.69-7.02,2.07-10.18c1.38-3.16,3.24-5.91,5.59-8.26,2.35-2.35,5.12-4.21,8.31-5.59,3.19-1.38,6.6-2.07,10.23-2.07Z"/>
    <path class="cls-3" d="M347.88,225.28c-3.29-1.44-6.83-2.16-10.62-2.16s-7.32.72-10.62,2.16c-.67.29-1.32.6-1.95.94v-3.1h-14.38v50.72h14.38v-24.61c.11-1.6.43-3.1.95-4.5.67-1.79,1.58-3.36,2.73-4.73,1.16-1.37,2.49-2.44,4-3.21,1.51-.77,3.14-1.16,4.89-1.16s3.4.38,4.94,1.16"/>
    <path class="cls-3" d="M398.76,243.11c2.22.74,4.25,1.5,6.1,2.27,1.85.77,3.46,1.7,4.84,2.77,1.38,1.08,2.45,2.37,3.22,3.88.77,1.51,1.16,3.31,1.16,5.39v.1c0,5.11-1.7,9.1-5.09,11.99-3.39,2.89-8.15,4.33-14.26,4.33-3.83,0-7.59-.66-11.29-1.98-3.7-1.32-7.15-3.2-10.38-5.64l-.1-.1.1-.1,6.85-10.82.1.1c2.01,2.15,4.3,3.78,6.85,4.89,2.55,1.11,5.27,1.66,8.16,1.66,3.96,0,5.95-1.27,5.95-3.82,0-1.21-.64-2.11-1.91-2.71-1.28-.6-2.79-1.17-4.53-1.71-.34-.13-.66-.22-.96-.25-.3-.03-.62-.12-.96-.25-2.01-.54-4.03-1.12-6.05-1.76-2.02-.64-3.83-1.51-5.44-2.61-1.61-1.11-2.94-2.51-3.98-4.22-1.04-1.71-1.56-3.9-1.56-6.58v-.2c0-2.35.44-4.49,1.31-6.43.87-1.94,2.12-3.62,3.73-5.03,1.61-1.41,3.56-2.49,5.84-3.27,2.28-.77,4.8-1.16,7.56-1.16,3.22,0,6.48.49,9.77,1.46,3.29.97,6.35,2.4,9.17,4.28v.2l-6.15,11.19-.1-.1c-1.55-1.54-3.46-2.77-5.74-3.68-2.28-.91-4.7-1.36-7.26-1.36-.47,0-1.01.03-1.61.1-.6.07-1.16.24-1.66.5-.5.27-.92.62-1.26,1.06-.34.44-.5,1.06-.5,1.86,0,.6.27,1.16.81,1.66.54.5,1.23.97,2.07,1.41.84.44,1.78.86,2.82,1.26,1.04.4,2.07.77,3.07,1.11.2,0,.42.03.66.1.23.07.45.14.66.2Z"/>
    <path class="cls-3" d="M360.43,240.45c-3,0-5.67-1.42-7.37-3.63v37.02h14.74v-37.02c-1.7,2.21-4.37,3.63-7.37,3.63Z"/>
    <circle class="cls-3" cx="360.43" cy="229.22" r="7.37"/>
  </g>
  <circle class="cls-3" cx="760.37" cy="99.86" r="65.42"/>
  <g>
    <path class="cls-1" d="M767.42,95c.05.77.08,1.54.08,2.31,0,3.8-.68,7.39-2.04,10.75-1.36,3.37-3.24,6.29-5.63,8.79-2.39,2.49-5.23,4.46-8.52,5.89-3.29,1.44-6.83,2.16-10.63,2.16s-7.39-.72-10.75-2.16c-3.37-1.44-6.29-3.4-8.79-5.89-2.49-2.49-4.46-5.42-5.89-8.79-1.44-3.36-2.16-6.94-2.16-10.75s.72-7.39,2.16-10.75c1.44-3.36,3.4-6.29,5.89-8.79,2.49-2.49,5.42-4.45,8.79-5.89,3.36-1.44,6.95-2.16,10.75-2.16,4.98,0,9.52,1.2,13.6,3.59,4.08,2.39,7.36,5.54,9.82,9.44l-9.01,5.78c-1.39-2.77-3.35-4.99-5.89-6.66-2.54-1.67-5.38-2.5-8.52-2.5-2.31,0-4.47.47-6.47,1.42-2,.95-3.75,2.24-5.24,3.85-1.49,1.62-2.67,3.52-3.55,5.7-.87,2.18-1.31,4.5-1.31,6.97s.43,4.79,1.31,6.97c.87,2.19,2.05,4.09,3.55,5.7,1.49,1.62,3.24,2.9,5.24,3.85,2,.95,4.16,1.42,6.47,1.42,1.85,0,3.6-.3,5.24-.92,1.64-.62,3.11-1.49,4.39-2.62,1.28-1.13,2.4-2.45,3.35-3.97.95-1.51,1.66-3.2,2.12-5.04h-14.64l-4.93-10.02h30.98c.1.77.18,1.54.23,2.31Z"/>
    <path class="cls-1" d="M771.5,113.5v-43.15h10.79v53.94h0c-5.96,0-10.79-4.83-10.79-10.79ZM773.89,113.5h33.75v10.79h-27.74l-6.01-10.79Z"/>
  </g>
  <circle class="cls-3" cx="760.37" cy="99.86" r="65.42"/>
  <g>
    <path class="cls-1" d="M712.37,124.29v-53.42h11.14v53.42h-11.14ZM746.93,70.87h11v53.42h-11v-21.29h-17.09l-5.03-9.92h22.13v-22.21Z"/>
    <path class="cls-1" d="M774.26,70.87l15.26,30.77-8.24,6.87-19.92-37.65h12.9ZM798.06,70.87h13.05l-19.38,35.71v17.7h-11.14v-17.7l-.08-.16,5.65-11.52,11.91-24.04Z"/>
  </g>
</svg>