<?xml version="1.0" encoding="UTF-8"?>
<svg id="Livello_1" data-name="Livello 1" xmlns="http://www.w3.org/2000/svg" viewBox="0 0 825.78 273.88">
  <defs>
    <style>
      .cls-1 {
        fill: #fff;
      }

      .cls-2 {
        fill: #41923a;
      }

      .cls-3 {
        fill: #1d4620;
      }
    </style>
  </defs>
  <g>
    <path class="cls-2" d="M276.36,186.33l.03.03h89.83v-48.86h-11.02c1.32-2.45,2.56-4.98,3.69-7.58,4.88-11.2,7.32-23.22,7.32-36.08,0-12.86-2.45-24.89-7.32-36.08-4.88-11.2-11.49-20.96-19.83-29.29-8.33-8.34-18.1-14.95-29.29-19.83-11.19-4.88-23.1-7.32-35.72-7.32-12.62,0-24.53,2.44-35.72,7.32-11.19,4.88-20.95,11.49-29.29,19.83-8.33,8.33-14.94,18.1-19.83,29.29-4.88,11.19-7.32,23.22-7.32,36.08,0,12.86,2.44,24.88,7.32,36.08,4.88,11.19,11.49,20.96,19.83,29.29,8.34,8.33,18.1,14.94,29.29,19.83,11.2,4.88,23.1,7.32,35.72,7.32.77,0,1.54,0,2.31-.03ZM274.07,143.84c-24.09,0-44.2-17.03-48.95-39.71-.95-3.28-1.44-6.72-1.44-10.3,0-3.73.52-7.33,1.55-10.78,4.93-22.44,24.92-39.23,48.84-39.23,27.62,0,50.01,22.39,50.01,50.01,0,27.62-22.39,50.01-50.01,50.01Z"/>
    <path class="cls-2" d="M93.23,1.3c12.67,0,24.62,2.45,35.86,7.35,11.23,4.9,21.03,11.54,29.4,19.9,8.36,8.37,15,18.17,19.9,29.4,4.9,11.24,7.35,23.31,7.35,36.22,0,6.94-.72,13.63-2.15,20.08l-.36.72h-91.08l-22.95-36.58h68.13c-3.35-10.04-8.91-18.29-16.67-24.74-7.77-6.45-16.92-9.68-27.43-9.68-6.45,0-12.55,1.31-18.29,3.93-5.74,2.62-10.7,6.13-14.88,10.54-4.19,4.4-7.47,9.65-9.86,15.72-2.39,6.07-3.59,12.69-3.59,19.83,0,5.48,1.08,11.14,3.23,16.97,2.15,5.84,5.26,11.14,9.32,15.9,4.06,4.76,8.96,8.75,14.7,11.97,5.74,3.22,12.19,4.82,19.36,4.82,6.45,0,12.37-.9,17.75-2.69,5.38-1.79,10.46-5.79,15.24-12.01l.36-.36.72.36,41.6,18.32-.72.73c-8.61,12.06-19.54,21.46-32.81,28.21-13.27,6.75-27.31,10.12-42.13,10.12-12.91,0-25.04-2.39-36.4-7.17-11.36-4.78-21.22-11.35-29.58-19.72-8.37-8.36-15-18.16-19.9-29.4C2.45,118.8,0,106.85,0,94.17s2.45-24.98,7.35-36.22c4.9-11.23,11.53-21.03,19.9-29.4,8.36-8.36,18.23-15,29.58-19.9,11.35-4.9,23.49-7.35,36.4-7.35Z"/>
    <path class="cls-2" d="M501.12,13.35v83.94c-.38,5.45-1.46,10.56-3.24,15.35-2.27,6.1-5.38,11.47-9.32,16.14-3.94,4.66-8.49,8.31-13.63,10.94-5.14,2.63-10.7,3.94-16.67,3.94s-11.6-1.31-16.85-3.94c-5.26-2.63-9.86-6.27-13.81-10.94-3.94-4.66-7.05-10.04-9.32-16.14-2.27-6.1-3.41-12.73-3.41-19.9V13.35h-49.08l-.41,80.46c0,12.67,2.45,24.62,7.35,35.86,4.9,11.24,11.53,21.04,19.9,29.4,8.36,8.37,18.16,15.01,29.4,19.9,11.23,4.9,23.31,7.35,36.22,7.35s24.98-2.45,36.22-7.35c2.27-.99,4.49-2.06,6.64-3.19v10.57h49.04V13.35h-49.04Z"/>
    <path class="cls-2" d="M735.51,93.82c0-12.67-2.45-24.62-7.35-35.86-4.9-11.23-11.54-21.03-19.9-29.4-8.37-8.37-18.17-15-29.4-19.9-11.24-4.9-23.31-7.35-36.22-7.35s-24.98,2.45-36.22,7.35c-11.24,4.9-21.04,11.54-29.4,19.9-8.37,8.37-15,18.17-19.9,29.4-4.9,11.24-7.35,23.19-7.35,35.86s2.45,24.62,7.35,35.86c4.9,11.24,11.53,21.04,19.9,29.4,8.36,8.37,18.16,15.01,29.4,19.9,11.23,4.9,23.31,7.35,36.22,7.35s24.98-2.45,36.22-7.35c2.62-1.14,5.15-2.38,7.61-3.71v11.06h49.04v-90.17l-.03-.03c.02-.77.03-1.54.03-2.31ZM642.63,144.03c-27.73,0-50.2-22.48-50.2-50.2,0-24.01,16.86-44.07,39.38-49.02,3.47-1.03,7.07-1.55,10.82-1.55s7.04.49,10.34,1.44c22.76,4.77,39.86,24.95,39.86,49.13,0,27.73-22.48,50.2-50.2,50.2Z"/>
  </g>
  <g>
    <path class="cls-3" d="M439.36,221.87c3.56,0,6.92.69,10.08,2.07,3.16,1.38,5.91,3.24,8.26,5.59,2.35,2.35,4.22,5.11,5.59,8.26,1.38,3.16,2.07,6.55,2.07,10.18,0,1.95-.2,3.83-.6,5.64l-.1.2h-41.06v-10.28h28.16c-.94-2.82-2.5-5.14-4.69-6.95-2.18-1.81-4.75-2.72-7.71-2.72-1.81,0-3.53.37-5.14,1.11-1.61.74-3.01,1.72-4.18,2.96-1.18,1.24-2.1,2.71-2.77,4.42-.67,1.71-1.01,3.57-1.01,5.57,0,1.54.3,3.13.91,4.77.6,1.64,1.48,3.13,2.62,4.47,1.14,1.34,2.52,2.46,4.13,3.36,1.61.9,3.43,1.36,5.44,1.36,1.81,0,3.48-.25,4.99-.76,1.51-.5,2.94-1.63,4.28-3.38l.1-.1.2.1,11.69,5.15-.2.2c-2.42,3.39-5.49,6.03-9.22,7.93-3.73,1.9-7.68,2.85-11.84,2.85-3.63,0-7.04-.67-10.23-2.02-3.19-1.34-5.96-3.19-8.32-5.54-2.35-2.35-4.22-5.11-5.59-8.26-1.38-3.16-2.07-6.52-2.07-10.08s.69-7.02,2.07-10.18c1.38-3.16,3.24-5.91,5.59-8.26,2.35-2.35,5.12-4.22,8.32-5.59,3.19-1.38,6.6-2.07,10.23-2.07Z"/>
    <path class="cls-3" d="M341.77,225.3c-3.29-1.44-6.84-2.16-10.62-2.16s-7.33.72-10.62,2.16c-.67.29-1.32.6-1.95.94v-3.1h-14.38v50.74h14.38v-24.62c.11-1.6.43-3.1.95-4.5.67-1.79,1.58-3.37,2.73-4.73,1.16-1.37,2.49-2.44,4-3.21,1.51-.77,3.14-1.16,4.89-1.16s3.4.38,4.94,1.16"/>
    <path class="cls-3" d="M392.66,243.14c2.22.74,4.25,1.5,6.1,2.27,1.85.77,3.46,1.7,4.84,2.77,1.38,1.08,2.45,2.37,3.23,3.88.77,1.51,1.16,3.31,1.16,5.39v.1c0,5.11-1.7,9.11-5.09,11.99-3.39,2.89-8.15,4.33-14.26,4.33-3.83,0-7.59-.66-11.29-1.98-3.7-1.32-7.16-3.2-10.38-5.64l-.1-.1.1-.1,6.85-10.82.1.1c2.02,2.15,4.3,3.78,6.85,4.89,2.55,1.11,5.27,1.66,8.16,1.66,3.96,0,5.95-1.27,5.95-3.82,0-1.21-.64-2.11-1.91-2.71-1.28-.6-2.79-1.17-4.54-1.71-.34-.13-.66-.22-.96-.25-.3-.03-.62-.12-.96-.25-2.02-.54-4.03-1.12-6.05-1.76-2.02-.64-3.83-1.51-5.44-2.61-1.61-1.11-2.94-2.51-3.98-4.22-1.04-1.71-1.56-3.9-1.56-6.59v-.2c0-2.35.44-4.49,1.31-6.43.87-1.94,2.12-3.62,3.73-5.03,1.61-1.41,3.56-2.5,5.85-3.27,2.28-.77,4.8-1.16,7.56-1.16,3.22,0,6.48.49,9.78,1.46,3.29.97,6.35,2.4,9.17,4.28v.2l-6.15,11.19-.1-.1c-1.55-1.54-3.46-2.77-5.75-3.68-2.28-.91-4.7-1.36-7.26-1.36-.47,0-1.01.03-1.61.1-.6.07-1.16.24-1.66.5-.5.27-.92.62-1.26,1.06-.34.44-.5,1.06-.5,1.86,0,.6.27,1.16.81,1.66.54.5,1.23.97,2.07,1.41.84.44,1.78.86,2.82,1.26,1.04.4,2.07.77,3.07,1.11.2,0,.42.03.66.1.23.07.45.14.66.2Z"/>
    <path class="cls-3" d="M354.32,240.47c-3,0-5.67-1.42-7.37-3.63v37.03h14.74v-37.03c-1.7,2.21-4.37,3.63-7.37,3.63Z"/>
    <circle class="cls-3" cx="354.32" cy="229.24" r="7.37"/>
  </g>
  <circle class="cls-3" cx="760.53" cy="99.85" r="65.43"/>
  <g>
    <path class="cls-1" d="M767.58,95c.05.77.08,1.54.08,2.31,0,3.8-.68,7.39-2.04,10.75-1.36,3.37-3.24,6.3-5.63,8.79-2.39,2.49-5.23,4.46-8.52,5.9-3.29,1.44-6.83,2.16-10.64,2.16s-7.39-.72-10.75-2.16c-3.37-1.44-6.3-3.4-8.79-5.9-2.49-2.49-4.46-5.42-5.9-8.79-1.44-3.36-2.16-6.95-2.16-10.75s.72-7.39,2.16-10.75c1.44-3.36,3.4-6.3,5.9-8.79,2.49-2.49,5.42-4.46,8.79-5.9,3.36-1.44,6.95-2.16,10.75-2.16,4.98,0,9.52,1.2,13.6,3.59,4.08,2.39,7.36,5.54,9.83,9.44l-9.02,5.78c-1.39-2.77-3.35-5-5.9-6.66-2.54-1.67-5.38-2.5-8.52-2.5-2.31,0-4.47.47-6.47,1.42-2,.95-3.75,2.24-5.24,3.85-1.49,1.62-2.67,3.52-3.55,5.71-.88,2.18-1.31,4.51-1.31,6.97s.43,4.79,1.31,6.97c.87,2.19,2.05,4.09,3.55,5.71,1.49,1.62,3.24,2.9,5.24,3.85,2,.95,4.16,1.42,6.47,1.42,1.85,0,3.6-.3,5.24-.92,1.64-.62,3.11-1.49,4.39-2.62,1.28-1.13,2.4-2.45,3.35-3.97.95-1.51,1.66-3.2,2.12-5.05h-14.64l-4.93-10.02h30.99c.1.77.18,1.54.23,2.31Z"/>
    <path class="cls-1" d="M771.67,113.5v-43.16h10.79v53.95h0c-5.96,0-10.79-4.83-10.79-10.79ZM774.06,113.5h33.76v10.79h-27.75l-6.01-10.79Z"/>
  </g>
</svg>