<?xml version="1.0" encoding="UTF-8"?>
<svg id="Livello_1" data-name="Livello 1" xmlns="http://www.w3.org/2000/svg" viewBox="0 0 460 460">
  <defs>
    <style>
      .cls-1 {
        fill: #fff;
      }
    </style>
  </defs>
  <path class="cls-1" d="M406.71,275.37c0-12.06-2.34-23.44-7-34.14-4.67-10.7-10.98-20.02-18.95-27.99-7.97-7.96-17.3-14.28-27.99-18.95-7.84-3.42-16.11-5.57-24.8-6.49h69.5v-46.69h-10.53c1.27-2.34,2.44-4.76,3.53-7.25,4.66-10.7,7-22.19,7-34.48s-2.34-23.78-7-34.48c-4.66-10.7-10.98-20.03-18.95-27.99-7.96-7.97-17.29-14.29-27.99-18.95-10.7-4.67-22.07-7-34.14-7s-23.44,2.33-34.14,7c-10.7,4.66-20.02,10.98-27.99,18.95-7.96,7.96-14.28,17.29-18.95,27.99-1.57,3.6-2.85,7.29-3.89,11.07-1.03-3.72-2.3-7.36-3.84-10.9-4.67-10.7-10.98-20.02-18.95-27.99-7.97-7.96-17.3-14.28-27.99-18.95-10.7-4.66-22.08-7-34.14-7s-23.84,2.34-34.65,7c-10.81,4.67-20.2,10.98-28.16,18.95-7.97,7.97-14.28,17.3-18.95,27.99-4.67,10.7-7,22.19-7,34.48s2.33,23.44,7,34.14c4.66,10.7,10.98,20.03,18.95,27.99,7.96,7.97,17.35,14.23,28.16,18.78,10.81,4.55,22.36,6.83,34.65,6.83,14.11,0,27.48-3.21,40.11-9.64,12.63-6.42,23.04-15.37,31.24-26.85l.68-.69-39.6-17.44-.68-.34-.34.34c-4.55,5.92-9.39,9.73-14.51,11.44-5.12,1.71-10.75,2.56-16.9,2.56-6.83,0-12.97-1.53-18.43-4.59-5.46-3.06-10.13-6.86-14-11.39-3.87-4.53-6.83-9.58-8.88-15.14-2.05-5.55-3.07-10.94-3.07-16.16,0-6.8,1.14-13.1,3.41-18.88,2.27-5.78,5.4-10.78,9.39-14.97,3.98-4.19,8.71-7.54,14.17-10.03,5.46-2.5,11.27-3.74,17.41-3.74,10.01,0,18.72,3.07,26.12,9.22,7.39,6.14,12.69,14,15.88,23.56h-64.86l21.85,34.82h85.08c1.15,4.99,2.72,9.83,4.76,14.51,4.67,10.7,10.98,20.03,18.95,27.99,7.97,7.96,17.3,14.28,27.99,18.95,10.51,4.58,21.67,6.9,33.49,6.98-8.74.91-17.05,3.07-24.93,6.5-10.7,4.67-20.03,10.98-27.99,18.95-7.97,7.97-14.29,17.3-18.95,27.99-2.5,5.72-4.3,11.64-5.46,17.75v-56.1h-45.56v77.99c-.36,5.06-1.35,9.82-3.01,14.26-2.11,5.66-5,10.66-8.66,14.99-3.66,4.33-7.89,7.72-12.66,10.16-4.78,2.45-9.94,3.67-15.49,3.67s-10.77-1.22-15.66-3.67c-4.89-2.44-9.16-5.83-12.83-10.16-3.66-4.33-6.55-9.33-8.66-14.99-2.11-5.66-3.16-11.83-3.16-18.49v-73.76h-45.6l-.38,74.75c0,11.77,2.27,22.88,6.83,33.31,4.55,10.44,10.71,19.55,18.49,27.32,7.77,7.78,16.88,13.94,27.32,18.49,10.44,4.55,21.65,6.83,33.65,6.83s23.21-2.28,33.65-6.83c2.11-.92,4.17-1.91,6.17-2.97v9.82h45.56v-71.85c1.16,6.11,2.97,12.03,5.46,17.75,4.66,10.7,10.98,20.03,18.95,27.99,7.96,7.97,17.29,14.29,27.99,18.95,10.7,4.66,22.19,7,34.48,7s23.78-2.34,34.48-7c2.49-1.09,4.9-2.27,7.25-3.53v10.53h46.69v-85.84l-.03-.03c.02-.73.03-1.47.03-2.2ZM262.62,109.22c-.91-3.14-1.37-6.42-1.37-9.84s.49-7,1.48-10.3c4.71-21.44,23.81-37.49,46.67-37.49,26.4,0,47.79,21.4,47.79,47.79s-21.4,47.79-47.79,47.79c-23.02,0-42.24-16.28-46.78-37.95ZM318.29,323.17c-26.4,0-47.8-21.4-47.8-47.8,0-22.86,16.05-41.96,37.49-46.67,3.3-.98,6.73-1.48,10.3-1.48s6.7.46,9.84,1.37c21.67,4.54,37.95,23.75,37.95,46.78,0,26.4-21.4,47.8-47.79,47.8Z"/>
  <g>
    <path class="cls-1" d="M374.18,386.5c4.45,0,8.66.86,12.61,2.58,3.95,1.72,7.39,4.06,10.34,7,2.94,2.94,5.27,6.39,7,10.34,1.72,3.95,2.58,8.19,2.58,12.73,0,2.44-.25,4.79-.76,7.06l-.13.25h-50.22l.46-12.86h33.62c-1.18-3.53-3.13-6.43-5.86-8.7-2.73-2.27-5.95-3.4-9.64-3.4-2.27,0-4.41.46-6.43,1.38-2.02.92-3.76,2.16-5.23,3.71-1.47,1.55-2.63,3.39-3.47,5.53-.84,2.14-1.26,4.46-1.26,6.97,0,1.93.38,3.92,1.13,5.97.76,2.05,1.85,3.92,3.28,5.59,1.43,1.67,3.15,3.08,5.17,4.21,2.02,1.13,4.29,1.7,6.81,1.7,2.27,0,4.35-.32,6.24-.95,1.89-.63,3.68-2.04,5.36-4.22l.13-.13.25.13,14.62,6.44-.25.26c-3.03,4.24-6.87,7.54-11.54,9.92-4.66,2.37-9.6,3.56-14.81,3.56-4.54,0-8.81-.84-12.8-2.52-3.99-1.68-7.46-3.99-10.4-6.93-2.94-2.94-5.28-6.39-7-10.34-1.72-3.95-2.58-8.15-2.58-12.61s.86-8.78,2.58-12.73c1.72-3.95,4.05-7.39,7-10.34,2.94-2.94,6.41-5.27,10.4-7,3.99-1.72,8.26-2.58,12.8-2.58Z"/>
    <path class="cls-1" d="M333.96,407.81c-1.84-4.23-4.34-7.91-7.48-11.06-3.15-3.15-6.83-5.64-11.06-7.48-4.22-1.84-8.76-2.76-13.62-2.76s-9.39.92-13.62,2.76c-.06.03-.12.06-.19.09v-.02c-4.5,1.95-8.5,4.83-11.77,8.39-.3-.32-.57-.66-.88-.97-3.15-3.15-6.83-5.64-11.06-7.48-4.22-1.84-8.76-2.76-13.62-2.76s-9.39.92-13.62,2.76c-.86.37-1.69.77-2.5,1.2v-3.97h-18.44v65.05h18.44v-31.57c.14-2.05.55-3.97,1.22-5.77.86-2.29,2.02-4.31,3.51-6.07,1.48-1.75,3.19-3.12,5.12-4.11,1.93-.99,4.02-1.48,6.27-1.48s4.36.49,6.34,1.48c1.98.99,3.71,2.36,5.19,4.11,1.48,1.75,2.65,3.78,3.51,6.07.86,2.29,1.28,4.79,1.28,7.48v29.85h18.45s.25,0,.25,0v-31.56c.14-2.05.55-3.97,1.22-5.77.86-2.29,2.02-4.32,3.51-6.07,1.48-1.75,3.19-3.12,5.12-4.11,1.93-.99,4.02-1.48,6.27-1.48s4.36.49,6.34,1.48c1.98.99,3.71,2.36,5.19,4.11,1.48,1.75,2.65,3.78,3.51,6.07.86,2.29,1.28,4.79,1.28,7.48v29.85h18.45l.15-30.26c0-4.77-.92-9.26-2.76-13.48Z"/>
    <path class="cls-1" d="M91.14,451.48v-31.56c.14-2.05.55-3.97,1.22-5.77.86-2.29,2.02-4.31,3.51-6.07,1.48-1.75,3.19-3.12,5.12-4.11,1.93-.99,4.02-1.48,6.27-1.48s4.36.49,6.34,1.48c1.98.99,3.71,2.36,5.19,4.11,1.48,1.75,2.65,3.78,3.51,6.07.86,2.29,1.28,4.79,1.28,7.48v29.85h18.45l.15-30.26c0-4.77-.92-9.26-2.76-13.48-1.84-4.23-4.34-7.91-7.48-11.06-3.15-3.15-6.83-5.64-11.06-7.48-4.22-1.84-8.76-2.76-13.62-2.76s-9.39.92-13.62,2.76c-.86.37-1.69.77-2.5,1.2v-17.95h-18.44v79.03h18.44Z"/>
    <path class="cls-1" d="M210.1,406.04c-1.77-4.07-4.18-7.61-7.2-10.64-3.03-3.03-6.58-5.43-10.64-7.2-4.07-1.77-8.44-2.66-13.11-2.66s-9.04.89-13.11,2.66c-4.07,1.77-7.62,4.18-10.64,7.2-3.03,3.03-5.43,6.58-7.2,10.64-1.77,4.07-2.66,8.39-2.66,12.98s.89,8.91,2.66,12.98c1.77,4.07,4.17,7.62,7.2,10.64,3.03,3.03,6.58,5.43,10.64,7.2,4.07,1.77,8.44,2.66,13.11,2.66s9.04-.89,13.11-2.66c4.07-1.77,7.61-4.17,10.64-7.2,3.03-3.03,5.43-6.58,7.2-10.64,1.77-4.07,2.66-8.39,2.66-12.98s-.89-8.91-2.66-12.98ZM179.83,436.02c-.23.01-.46.02-.69.02-.01,0-.02,0-.03,0-.01,0-.02,0-.03,0-10.04,0-18.17-8.14-18.17-18.17s8.14-18.17,18.17-18.17c.01,0,.02,0,.03,0,.01,0,.02,0,.03,0,.22,0,.44,0,.66.02,9.7.38,17.44,8.36,17.44,18.15s-7.73,17.76-17.42,18.15Z"/>
  </g>
</svg>